# xmcd
#
# Track frame offsets: 
#        150
#        21940
#        42205
#        62982
#        84332
#        99570
#        117412
#        131347
#        149150
#        165710
#        190362
#        209952
#        226375
#        239342
#        252495
#        271620
#        293917
#
# Disc length: 4209 seconds
#
# Revision: 2
# Processed by: cddbd v1.5.2PL0 Copyright (c) Steve Scherf et al.
# Submitted via: ExactAudioCopyFreeDBPlugin 1.0
#
DISCID=06106f11
DTITLE=Various Artist - Feeling Taxim - CD2
DYEAR=1997
DGENRE=Blues-Rock
TTITLE0=Bugs Henderson - She Feels Good
TTITLE1=Rhett Tyler and Early Warning - Get Tough
TTITLE2=B.B. And The Stingers - Terraplane Blues
TTITLE3=Reddog - She's Gone
TTITLE4=Bleu Jackson - Blackmailed By The Blues
TTITLE5=Bluebirds - First You Cry
TTITLE6=Mary-Ann Brandon - Too Much Fun
TTITLE7=Nuno Mindelis - Texas Bound
TTITLE8=Freddie and The Screamers - Raised On The Blues
TTITLE9=Buick 6 - Hard Time Here
TTITLE10=Lazy Poker Blues Band - Feel Alright
TTITLE11=Metropolitan Blues All-Stars - Trying Times
TTITLE12=John Pearson and Roger Hubbard - As I Went Down
TTITLE13=Billy C. Farlow and Bleu Jackson - My Train
TTITLE14=Nick Cravenites and Animal Mind - You Can't Hurt Me
TTITLE15=Chris Smith - Down In South Central
TTITLE16=Mike Clarke Band - Gypsy Blues
EXTD=
EXTT0=
EXTT1=
EXTT2=
EXTT3=
EXTT4=
EXTT5=
EXTT6=
EXTT7=
EXTT8=
EXTT9=
EXTT10=
EXTT11=
EXTT12=
EXTT13=
EXTT14=
EXTT15=
EXTT16=
PLAYORDER=
